<svg width="100" height="100" viewBox="0 0 100 100" xmlns="http://www.w3.org/2000/svg">
  <defs>
    <pattern id="artistic-grid" width="40" height="40" patternUnits="userSpaceOnUse">
      <!-- Vertical lines with hand-drawn feel -->
      <path d="M0,0 Q1,10 0,20 Q-1,30 0,40" stroke="currentColor" stroke-width="0.5" fill="none" opacity="0.3"/>
      <path d="M10,0 Q11,15 10,20 Q9,30 10,40" stroke="currentColor" stroke-width="0.5" fill="none" opacity="0.3"/>
      <path d="M20,0 Q21,5 20,15 Q19,25 20,40" stroke="currentColor" stroke-width="0.5" fill="none" opacity="0.3"/>
      <path d="M30,0 Q31,10 30,25 Q29,35 30,40" stroke="currentColor" stroke-width="0.5" fill="none" opacity="0.3"/>
      <path d="M40,0 Q41,15 40,20 Q39,30 40,40" stroke="currentColor" stroke-width="0.5" fill="none" opacity="0.3"/>
      
      <!-- Horizontal lines with hand-drawn feel -->
      <path d="M0,0 Q10,1 20,0 Q30,-1 40,0" stroke="currentColor" stroke-width="0.5" fill="none" opacity="0.3"/>
      <path d="M0,10 Q10,11 20,10 Q30,9 40,10" stroke="currentColor" stroke-width="0.5" fill="none" opacity="0.3"/>
      <path d="M0,20 Q10,21 20,20 Q30,19 40,20" stroke="currentColor" stroke-width="0.5" fill="none" opacity="0.3"/>
      <path d="M0,30 Q10,31 15,30 Q25,29 40,30" stroke="currentColor" stroke-width="0.5" fill="none" opacity="0.3"/>
      <path d="M0,40 Q15,41 20,40 Q30,39 40,40" stroke="currentColor" stroke-width="0.5" fill="none" opacity="0.3"/>
    </pattern>
  </defs>
  <rect width="100" height="100" fill="url(#artistic-grid)" />
</svg> 