<svg width="300" height="300" viewBox="0 0 300 300" xmlns="http://www.w3.org/2000/svg">
  <defs>
    <filter id="blur-filter" x="-50%" y="-50%" width="200%" height="200%">
      <feGaussianBlur in="SourceGraphic" stdDeviation="3" />
    </filter>
  </defs>
  
  <!-- Main ink splash -->
  <path d="M150,150 
           C130,80 180,60 170,30 
           C190,70 210,50 250,90 
           C220,110 270,130 260,170 
           C250,200 180,190 200,230 
           C160,240 130,200 110,220 
           C80,190 110,150 90,120 
           C110,90 130,100 150,150 Z" 
        fill="currentColor" 
        opacity="0.6"
        filter="url(#blur-filter)">
    <animate attributeName="d" 
             dur="20s" 
             repeatCount="indefinite" 
             values="
             M150,150 C130,80 180,60 170,30 C190,70 210,50 250,90 C220,110 270,130 260,170 C250,200 180,190 200,230 C160,240 130,200 110,220 C80,190 110,150 90,120 C110,90 130,100 150,150 Z;
             M150,150 C140,90 170,50 180,40 C195,80 220,60 240,100 C210,100 260,140 250,160 C260,210 170,180 190,220 C150,250 120,190 100,210 C90,180 120,160 100,130 C100,100 140,110 150,150 Z;
             M150,150 C130,80 180,60 170,30 C190,70 210,50 250,90 C220,110 270,130 260,170 C250,200 180,190 200,230 C160,240 130,200 110,220 C80,190 110,150 90,120 C110,90 130,100 150,150 Z"
             calcMode="spline"
             keySplines="0.5 0 0.5 1; 0.5 0 0.5 1"
             keyTimes="0; 0.5; 1" />
  </path>
  
  <!-- Small ink droplets -->
  <circle cx="270" cy="130" r="10" fill="currentColor" opacity="0.5" filter="url(#blur-filter)" />
  <circle cx="80" cy="220" r="15" fill="currentColor" opacity="0.4" filter="url(#blur-filter)" />
  <circle cx="170" cy="250" r="12" fill="currentColor" opacity="0.4" filter="url(#blur-filter)" />
  <circle cx="220" cy="50" r="8" fill="currentColor" opacity="0.5" filter="url(#blur-filter)" />
  <circle cx="50" cy="140" r="14" fill="currentColor" opacity="0.3" filter="url(#blur-filter)" />
</svg> 